<svg width="46" height="28" viewBox="0 0 46 28" fill="none" xmlns="http://www.w3.org/2000/svg">
<rect x="0.5" y="0.5" width="45" height="27" rx="3.5" stroke="#1C1C1C" stroke-opacity="0.1"/>
<path fill-rule="evenodd" clip-rule="evenodd" d="M23 19.0992C21.8159 20.0973 20.28 20.6998 18.6017 20.6998C14.8568 20.6998 11.821 17.7001 11.821 13.9998C11.821 10.2995 14.8568 7.2998 18.6017 7.2998C20.28 7.2998 21.8159 7.9023 23 8.90034C24.184 7.9023 25.7199 7.2998 27.3983 7.2998C31.1431 7.2998 34.179 10.2995 34.179 13.9998C34.179 17.7001 31.1431 20.6998 27.3983 20.6998C25.7199 20.6998 24.184 20.0973 23 19.0992Z" fill="#ED0006"/>
<path fill-rule="evenodd" clip-rule="evenodd" d="M22.9997 19.0992C24.4576 17.8703 25.3821 16.0417 25.3821 13.9998C25.3821 11.9578 24.4576 10.1292 22.9997 8.90034C24.1838 7.9023 25.7197 7.2998 27.398 7.2998C31.1429 7.2998 34.1787 10.2995 34.1787 13.9998C34.1787 17.7001 31.1429 20.6998 27.398 20.6998C25.7197 20.6998 24.1838 20.0973 22.9997 19.0992Z" fill="#F9A000"/>
<path fill-rule="evenodd" clip-rule="evenodd" d="M23.0003 19.0992C24.4582 17.8703 25.3826 16.0417 25.3826 13.9998C25.3826 11.9579 24.4582 10.1293 23.0003 8.90039C21.5423 10.1293 20.6179 11.9579 20.6179 13.9998C20.6179 16.0417 21.5423 17.8703 23.0003 19.0992Z" fill="#FF5E00"/>
</svg>
