<svg width="48" height="48" viewBox="0 0 48 48" fill="none" xmlns="http://www.w3.org/2000/svg">
<rect x="8" y="8" width="40" height="40" rx="20" fill="#F9CCD9"/>
<path d="M36.015 22.6028L36.397 18.544C36.697 15.3563 36.847 13.7625 36.3017 13.1036C36.0067 12.7472 35.6055 12.5288 35.1767 12.4912C34.3838 12.4215 33.3882 13.555 31.3969 15.8219C30.367 16.9943 29.8521 17.5805 29.2777 17.6713C28.9594 17.7216 28.6351 17.6699 28.3412 17.522C27.8108 17.255 27.4571 16.5304 26.7499 15.081L23.0218 7.44159C21.6852 4.70286 21.017 3.3335 20 3.3335C18.983 3.3335 18.3147 4.70286 16.9782 7.44159L13.2501 15.081C12.5428 16.5304 12.1892 17.255 11.6587 17.522C11.3648 17.6699 11.0405 17.7216 10.7223 17.6713C10.1478 17.5805 9.63292 16.9943 8.6031 15.8219C6.61178 13.555 5.61612 12.4215 4.82329 12.4912C4.39441 12.5288 3.99328 12.7472 3.69829 13.1036C3.15297 13.7625 3.30298 15.3563 3.60299 18.544L3.98498 22.6027C4.6144 29.2904 4.92911 32.6343 6.90014 34.6506C8.87116 36.6668 11.8253 36.6668 17.7334 36.6668H22.2665C28.1747 36.6668 31.1288 36.6668 33.0998 34.6506C35.0708 32.6343 35.3856 29.2904 36.015 22.6028Z" stroke="#EA5297" stroke-width="1.5"/>
<path d="M15 30H25" stroke="#EA5297" stroke-width="1.5" stroke-linecap="round"/>
</svg>
