<svg width="48" height="48" viewBox="0 0 48 48" fill="none" xmlns="http://www.w3.org/2000/svg">
<rect x="8" y="8" width="40" height="40" rx="20" fill="#F9CCD9"/>
<path d="M5 36.6665H35" stroke="#EA5297" stroke-width="1.5" stroke-linecap="round" stroke-linejoin="round"/>
<path d="M5 18.3333C5 16.762 5 15.9763 5.48816 15.4882C5.97631 15 6.76198 15 8.33333 15C9.90468 15 10.6904 15 11.1785 15.4882C11.6667 15.9763 11.6667 16.762 11.6667 18.3333V28.3333C11.6667 29.9047 11.6667 30.6904 11.1785 31.1785C10.6904 31.6667 9.90468 31.6667 8.33333 31.6667C6.76198 31.6667 5.97631 31.6667 5.48816 31.1785C5 30.6904 5 29.9047 5 28.3333V18.3333Z" stroke="#EA5297" stroke-width="1.5"/>
<path d="M16.6667 11.6668C16.6667 10.0955 16.6667 9.30981 17.1548 8.82165C17.643 8.3335 18.4286 8.3335 20 8.3335C21.5713 8.3335 22.357 8.3335 22.8452 8.82165C23.3333 9.30981 23.3333 10.0955 23.3333 11.6668V28.3335C23.3333 29.9048 23.3333 30.6905 22.8452 31.1787C22.357 31.6668 21.5713 31.6668 20 31.6668C18.4286 31.6668 17.643 31.6668 17.1548 31.1787C16.6667 30.6905 16.6667 29.9048 16.6667 28.3335V11.6668Z" stroke="#EA5297" stroke-width="1.5"/>
<path d="M28.3333 6.66683C28.3333 5.09548 28.3333 4.30981 28.8215 3.82165C29.3097 3.3335 30.0953 3.3335 31.6667 3.3335C33.238 3.3335 34.0237 3.3335 34.5119 3.82165C35 4.30981 35 5.09548 35 6.66683V28.3335C35 29.9048 35 30.6905 34.5119 31.1787C34.0237 31.6668 33.238 31.6668 31.6667 31.6668C30.0953 31.6668 29.3097 31.6668 28.8215 31.1787C28.3333 30.6905 28.3333 29.9048 28.3333 28.3335V6.66683Z" stroke="#EA5297" stroke-width="1.5"/>
</svg>
