<svg width="49" height="48" viewBox="0 0 49 48" fill="none" xmlns="http://www.w3.org/2000/svg">
<rect x="8.75" y="8" width="40" height="40" rx="20" fill="#F9CCD9"/>
<path d="M17.0545 5.83275C19.4229 4.72242 22.077 4.72242 24.4453 5.83275L35.5973 11.0611C38.0231 12.1983 38.0231 16.1351 35.5973 17.2723L24.4455 22.5006C22.0771 23.6109 19.423 23.6109 17.0547 22.5006L5.90268 17.2723C3.47689 16.135 3.4769 12.1982 5.90268 11.061L17.0545 5.83275Z" stroke="#EA5297" stroke-width="1.5"/>
<path d="M4.08334 14.1665V23.3332" stroke="#EA5297" stroke-width="1.5" stroke-linecap="round"/>
<path d="M32.4167 19.1665V27.7089C32.4167 29.3889 31.5775 30.9619 30.1078 31.7758C27.6605 33.1311 23.7434 34.9998 20.75 34.9998C17.7567 34.9998 13.8395 33.1311 11.3922 31.7758C9.92252 30.9619 9.08334 29.3889 9.08334 27.7089V19.1665" stroke="#EA5297" stroke-width="1.5" stroke-linecap="round"/>
</svg>
