<svg width="30" height="15" viewBox="0 0 30 15" fill="none" xmlns="http://www.w3.org/2000/svg">
<path d="M8.74705 13.8543C8.49869 13.4052 8.25143 12.956 8.00307 12.5069C7.41252 11.4378 6.82308 10.3687 6.23253 9.29837C5.51394 7.99633 4.79535 6.69548 4.07676 5.39344C3.45972 4.27536 2.84269 3.15727 2.22565 2.04038C1.9243 1.49448 1.63289 0.94022 1.32051 0.400291C1.3161 0.393124 1.31278 0.385956 1.30837 0.377595C1.11961 0.035958 0.66815 -0.119331 0.346937 0.105241C0.0290354 0.32623 -0.106735 0.780152 0.0952651 1.14568C0.343626 1.59482 0.590882 2.04397 0.839243 2.49311C1.42979 3.56222 2.01923 4.63133 2.60978 5.70163C3.32837 7.00367 4.04696 8.30452 4.76555 9.60656C5.38259 10.7246 5.99963 11.8415 6.61666 12.9596C6.91801 13.5055 7.20942 14.0598 7.5218 14.5997C7.52622 14.6069 7.52953 14.614 7.53394 14.6224C7.79665 15.099 8.49206 15.1325 8.74705 14.6224C8.97002 14.1757 9.1941 13.7289 9.41707 13.2833C9.95353 12.2106 10.49 11.1391 11.0264 10.0665C11.6755 8.76919 12.3245 7.47193 12.9736 6.17347C13.5354 5.0518 14.0962 3.92894 14.658 2.80728C14.9307 2.26257 15.2232 1.72383 15.4771 1.16957C15.4804 1.16121 15.4848 1.15404 15.4892 1.14568C15.0852 1.14568 14.6801 1.14568 14.2761 1.14568C14.5112 1.59482 14.7463 2.04397 14.9815 2.49311C15.5411 3.56222 16.1007 4.63013 16.6604 5.69924C17.3414 7.00009 18.0236 8.30213 18.7047 9.60298C19.2919 10.7234 19.878 11.8451 20.4653 12.9656C20.75 13.5091 21.0238 14.0622 21.3207 14.5997C21.3251 14.6069 21.3284 14.6152 21.3329 14.6224C21.5945 15.1229 22.281 15.1086 22.546 14.6224C22.7899 14.1768 23.0328 13.7313 23.2767 13.2845C23.8639 12.2094 24.4512 11.1344 25.0384 10.0593C25.746 8.76322 26.4546 7.46596 27.1622 6.16989C27.7759 5.04583 28.3896 3.92178 29.0033 2.79772C29.2992 2.2554 29.6082 1.71786 29.893 1.16838C29.8974 1.16121 29.9008 1.15404 29.9052 1.14568C30.0928 0.802849 29.988 0.296366 29.6535 0.105241C29.3157 -0.0882736 28.8919 0.0120673 28.6921 0.377595C28.4481 0.823156 28.2053 1.26872 27.9613 1.71547C27.3741 2.79055 26.7869 3.86563 26.1996 4.94071C25.4921 6.23678 24.7834 7.53404 24.0759 8.83011C23.4621 9.95417 22.8484 11.0782 22.2347 12.2023C21.9389 12.7446 21.6232 13.2786 21.345 13.8316C21.3417 13.8388 21.3373 13.846 21.3329 13.8543C21.7369 13.8543 22.142 13.8543 22.546 13.8543C22.3109 13.4052 22.0757 12.956 21.8406 12.5069C21.281 11.4378 20.7213 10.3699 20.1617 9.30076C19.4806 7.99991 18.7985 6.69787 18.1174 5.39702C17.5302 4.27655 16.9441 3.15488 16.3568 2.03441C16.072 1.4909 15.7983 0.937831 15.5014 0.400291C15.4969 0.393124 15.4936 0.384762 15.4892 0.377595C15.2342 -0.108581 14.5267 -0.12411 14.2761 0.377595C14.0531 0.82435 13.8291 1.27111 13.6061 1.71667C13.0696 2.78936 12.5332 3.86085 11.9967 4.93355C11.3477 6.23081 10.6986 7.52807 10.0496 8.82653C9.48771 9.9482 8.92697 11.0711 8.36512 12.1927C8.09248 12.7386 7.8099 13.2797 7.54608 13.8304C7.54277 13.8388 7.53836 13.846 7.53394 13.8543C7.35954 14.2043 7.44343 14.6989 7.78561 14.8948C8.11345 15.0823 8.5605 14.9951 8.74705 14.6224C8.97002 14.1757 9.1941 13.7289 9.41707 13.2833C9.95353 12.2106 10.49 11.1391 11.0264 10.0665C11.6755 8.76919 12.3245 7.47193 12.9736 6.17347C13.5354 5.0518 14.0962 3.92894 14.658 2.80728C14.9307 2.26257 15.2232 1.72383 15.4771 1.16957C15.4804 1.16121 15.4848 1.15404 15.4892 1.14568C15.0852 1.14568 14.6801 1.14568 14.2761 1.14568C14.5112 1.59482 14.7463 2.04397 14.9815 2.49311C15.5411 3.56222 16.1007 4.63013 16.6604 5.69924C17.3414 7.00009 18.0236 8.30213 18.7047 9.60298C19.2919 10.7234 19.878 11.8451 20.4653 12.9656C20.75 13.5091 21.0238 14.0622 21.3207 14.5997C21.3251 14.6069 21.3284 14.6152 21.3329 14.6224C21.5945 15.1229 22.281 15.1086 22.546 14.6224C22.7899 14.1768 23.0328 13.7313 23.2767 13.2845C23.8639 12.2094 24.4512 11.1344 25.0384 10.0593C25.746 8.76322 26.4546 7.46596 27.1622 6.16989C27.7759 5.04583 28.3896 3.92178 29.0033 2.79772C29.2992 2.2554 29.6082 1.71786 29.893 1.16838C29.8974 1.16121 29.9008 1.15404 29.9052 1.14568C30.0928 0.802849 29.988 0.296366 29.6535 0.105241C29.3157 -0.0882736 28.8919 0.0120673 28.6921 0.377595C28.4481 0.823156 28.2053 1.26872 27.9613 1.71547C27.3741 2.79055 26.7869 3.86563 26.1996 4.94071C25.4921 6.23678 24.7834 7.53404 24.0759 8.83011C23.4621 9.95417 22.8484 11.0782 22.2347 12.2023C21.9389 12.7446 21.6232 13.2786 21.345 13.8316C21.3417 13.8388 21.3373 13.846 21.3329 13.8543C21.7369 13.8543 22.142 13.8543 22.546 13.8543C22.3109 13.4052 22.0757 12.956 21.8406 12.5069C21.281 11.4378 20.7213 10.3699 20.1617 9.30076C19.4806 7.99991 18.7985 6.69787 18.1174 5.39702C17.5302 4.27655 16.9441 3.15488 16.3568 2.03441C16.072 1.4909 15.7983 0.937831 15.5014 0.400291C15.4969 0.393124 15.4936 0.384762 15.4892 0.377595C15.2342 -0.108581 14.5267 -0.12411 14.2761 0.377595C14.0531 0.82435 13.8291 1.27111 13.6061 1.71667C13.0696 2.78936 12.5332 3.86085 11.9967 4.93355C11.3477 6.23081 10.6986 7.52807 10.0496 8.82653C9.48771 9.9482 8.92697 11.0711 8.36512 12.1927C8.09248 12.7374 7.79996 13.2762 7.54608 13.8304C7.54277 13.8388 7.53836 13.846 7.53394 13.8543C7.93794 13.8543 8.34305 13.8543 8.74705 13.8543C8.49869 13.4052 8.25143 12.956 8.00307 12.5069C7.41252 11.4378 6.82308 10.3687 6.23253 9.29837C5.51394 7.99633 4.79535 6.69548 4.07676 5.39344C3.45972 4.27536 2.84269 3.15727 2.22565 2.04038C1.9243 1.49448 1.63289 0.94022 1.32051 0.400291C1.3161 0.393124 1.31278 0.385956 1.30837 0.377595C1.11961 0.035958 0.66815 -0.119331 0.346937 0.105241C0.0290354 0.32623 -0.106735 0.780152 0.0952651 1.14568C0.343626 1.59482 0.590882 2.04397 0.839243 2.49311C1.42979 3.56222 2.01923 4.63133 2.60978 5.70163C3.32837 7.00367 4.04696 8.30452 4.76555 9.60656C5.38259 10.7246 5.99963 11.8415 6.61666 12.9596C6.91801 13.5055 7.20942 14.0598 7.5218 14.5997C7.52622 14.6069 7.52953 14.614 7.53394 14.6224C7.7227 14.964 8.17416 15.1193 8.49538 14.8948C8.81217 14.6726 8.94905 14.2187 8.74705 13.8543Z" fill="#EA5297"/>
<path d="M0.205579 1.29834C0.471601 1.54561 0.737622 1.79288 1.00254 2.04134C1.64166 2.63622 2.27967 3.2299 2.91878 3.82478C3.69477 4.54747 4.47186 5.27016 5.24785 5.99405C5.91567 6.6164 6.58459 7.23876 7.2524 7.86111C7.57803 8.16333 7.90035 8.47032 8.22818 8.76895C8.2326 8.77373 8.23701 8.77732 8.24253 8.78209C8.52069 9.04131 8.96664 9.09984 9.23597 8.78209C9.47771 8.4978 9.53401 7.98415 9.23597 7.70701C8.96995 7.45975 8.70393 7.21248 8.43901 6.96401C7.7999 6.36914 7.16189 5.77545 6.52277 5.18058C5.74678 4.45788 4.96969 3.73519 4.1937 3.0113C3.52589 2.38895 2.85697 1.7666 2.18915 1.14425C1.86352 0.84203 1.54121 0.535035 1.21337 0.236401C1.20896 0.231623 1.20454 0.22804 1.19902 0.223261C0.920858 -0.0359524 0.474913 -0.0944845 0.205579 0.223261C-0.0361586 0.50756 -0.0913498 1.02121 0.205579 1.29834Z" fill="#EA5297"/>
<path d="M28.8023 0.223376C28.5363 0.470645 28.2703 0.717914 28.0054 0.966376C27.3663 1.56125 26.7283 2.15613 26.0891 2.74981C25.3131 3.47251 24.5361 4.1952 23.7601 4.91909C23.0922 5.54144 22.4233 6.16379 21.7555 6.78614C21.431 7.08836 21.0932 7.37983 20.7797 7.69399C20.7753 7.69877 20.7709 7.70235 20.7654 7.70713C20.4861 7.96754 20.5005 8.51941 20.7654 8.78221C21.0634 9.07845 21.4608 9.05934 21.7588 8.78221C22.0248 8.53494 22.2909 8.28767 22.5558 8.03921C23.1949 7.44433 23.8329 6.84945 24.472 6.25577C25.248 5.53308 26.0251 4.81039 26.8011 4.0865C27.4689 3.46415 28.1378 2.84179 28.8056 2.21944C29.1302 1.91722 29.4679 1.62576 29.7814 1.3116C29.7858 1.30682 29.7903 1.30323 29.7958 1.29846C30.075 1.03805 30.0607 0.486174 29.7958 0.223376C29.4977 -0.0728678 29.1004 -0.0537553 28.8023 0.223376Z" fill="#EA5297"/>
</svg>
