<svg width="49" height="48" viewBox="0 0 49 48" fill="none" xmlns="http://www.w3.org/2000/svg">
<rect x="8.5" y="8" width="40" height="40" rx="20" fill="#F9CCD9"/>
<path d="M20.5 36.6668C29.7047 36.6668 37.1667 29.2049 37.1667 20.0002C37.1667 10.7954 29.7047 3.3335 20.5 3.3335C11.2953 3.3335 3.83334 10.7954 3.83334 20.0002C3.83334 22.6663 4.45936 25.1862 5.57244 27.4209C5.86823 28.0148 5.96668 28.6936 5.7952 29.3345L4.80252 33.0446C4.37159 34.6551 5.84503 36.1286 7.45558 35.6976L11.1656 34.705C11.8066 34.5335 12.4853 34.6319 13.0792 34.9277C15.3139 36.0408 17.8339 36.6668 20.5 36.6668Z" stroke="#EA5297" stroke-width="1.5"/>
<path d="M17.2143 24.9027L16.7283 25.474L17.2143 24.9027ZM20.5 15.8328L19.9641 16.3576C20.1052 16.5016 20.2983 16.5828 20.5 16.5828C20.7017 16.5828 20.8948 16.5016 21.0359 16.3576L20.5 15.8328ZM23.7857 24.9027L23.2998 24.3315L23.7857 24.9027ZM20.5 26.6549L20.5 25.9049H20.5L20.5 26.6549ZM17.7003 24.3315C16.7154 23.4936 15.7101 22.5098 14.9568 21.4781C14.1946 20.4342 13.75 19.4227 13.75 18.5139H12.25C12.25 19.8857 12.9045 21.211 13.7453 22.3626C14.5951 23.5263 15.697 24.5966 16.7283 25.474L17.7003 24.3315ZM13.75 18.5139C13.75 16.5137 14.6571 15.3177 15.7471 14.9101C16.8455 14.4993 18.4201 14.7806 19.9641 16.3576L21.0359 15.3081C19.205 13.4382 17.0296 12.8291 15.2217 13.5051C13.4055 14.1842 12.25 16.052 12.25 18.5139H13.75ZM24.2717 25.474C25.3031 24.5966 26.4049 23.5264 27.2547 22.3626C28.0955 21.211 28.75 19.8857 28.75 18.5138H27.25C27.25 19.4227 26.8054 20.4342 26.0432 21.4781C25.2899 22.5098 24.2846 23.4937 23.2998 24.3315L24.2717 25.474ZM28.75 18.5138C28.75 16.052 27.5945 14.1842 25.7783 13.5051C23.9704 12.8291 21.795 13.4382 19.9641 15.3081L21.0359 16.3576C22.5799 14.7806 24.1545 14.4993 25.2529 14.9101C26.3429 15.3177 27.25 16.5137 27.25 18.5138H28.75ZM16.7283 25.474C18.0571 26.6044 18.9524 27.4049 20.5 27.4049L20.5 25.9049C19.5956 25.9049 19.1177 25.5374 17.7003 24.3315L16.7283 25.474ZM23.2998 24.3315C21.8823 25.5374 21.4045 25.9049 20.5 25.9049L20.5 27.4049C22.0477 27.4049 22.9429 26.6044 24.2717 25.474L23.2998 24.3315Z" fill="#EA5297"/>
</svg>
