<svg width="220" height="200" viewBox="0 0 220 200" fill="none" xmlns="http://www.w3.org/2000/svg">
<rect opacity="0.4" y="120" width="220" height="80" rx="4" fill="#EA5297"/>
<path d="M167.969 188C168.229 183.182 169.219 178.99 170.938 175.422C172.682 171.854 176.068 168.612 181.094 165.695L188.594 161.359C191.953 159.406 194.31 157.74 195.664 156.359C197.799 154.198 198.867 151.724 198.867 148.938C198.867 145.682 197.891 143.104 195.938 141.203C193.984 139.276 191.38 138.312 188.125 138.312C183.307 138.312 179.974 140.135 178.125 143.781C177.135 145.734 176.589 148.443 176.484 151.906H169.336C169.414 147.036 170.312 143.065 172.031 139.992C175.078 134.576 180.456 131.867 188.164 131.867C194.57 131.867 199.245 133.599 202.188 137.062C205.156 140.526 206.641 144.38 206.641 148.625C206.641 153.104 205.065 156.932 201.914 160.109C200.091 161.958 196.823 164.198 192.109 166.828L186.758 169.797C184.206 171.203 182.201 172.544 180.742 173.82C178.138 176.086 176.497 178.599 175.82 181.359H206.367V188H167.969Z" fill="white"/>
</svg>
