<svg width="220" height="200" viewBox="0 0 220 200" fill="none" xmlns="http://www.w3.org/2000/svg">
<rect width="220" height="200" rx="4" fill="#EA5297"/>
<path d="M106.055 140.227C107.461 152.258 113.047 160.578 122.812 165.188C127.812 167.531 133.594 168.703 140.156 168.703C152.656 168.703 161.914 164.719 167.93 156.75C173.945 148.781 176.953 139.953 176.953 130.266C176.953 118.547 173.359 109.484 166.172 103.078C159.062 96.6719 150.508 93.4688 140.508 93.4688C133.242 93.4688 126.992 94.875 121.758 97.6875C116.602 100.5 112.188 104.406 108.516 109.406L90.2344 108.352L103.008 18H190.195V38.3906H118.828L111.68 85.0312C115.586 82.0625 119.297 79.8359 122.812 78.3516C129.062 75.7734 136.289 74.4844 144.492 74.4844C159.883 74.4844 172.93 79.4453 183.633 89.3672C194.336 99.2891 199.688 111.867 199.688 127.102C199.688 142.961 194.766 156.945 184.922 169.055C175.156 181.164 159.531 187.219 138.047 187.219C124.375 187.219 112.266 183.391 101.719 175.734C91.25 168 85.3906 156.164 84.1406 140.227H106.055Z" fill="white"/>
</svg>
