<svg width="220" height="200" viewBox="0 0 220 200" fill="none" xmlns="http://www.w3.org/2000/svg">
<rect opacity="0.6" y="80" width="220" height="120" rx="4" fill="#EA5297"/>
<path d="M168.438 190.666C156.862 190.666 148.454 187.499 143.213 181.164C138.018 174.784 135.42 167.036 135.42 157.922H148.271C148.818 164.257 150.003 168.859 151.826 171.73C155.016 176.88 160.781 179.455 169.121 179.455C175.592 179.455 180.788 177.723 184.707 174.26C188.626 170.796 190.586 166.33 190.586 160.861C190.586 154.117 188.512 149.4 184.365 146.711C180.264 144.022 174.544 142.678 167.207 142.678C166.387 142.678 165.544 142.701 164.678 142.746C163.857 142.746 163.014 142.769 162.148 142.814V131.945C163.424 132.082 164.495 132.173 165.361 132.219C166.227 132.264 167.161 132.287 168.164 132.287C172.767 132.287 176.549 131.558 179.512 130.1C184.707 127.548 187.305 122.99 187.305 116.428C187.305 111.551 185.573 107.792 182.109 105.148C178.646 102.505 174.613 101.184 170.01 101.184C161.807 101.184 156.133 103.918 152.988 109.387C151.257 112.395 150.277 116.678 150.049 122.238H137.881C137.881 114.947 139.339 108.749 142.256 103.645C147.269 94.5299 156.087 89.9727 168.711 89.9727C178.691 89.9727 186.416 92.2057 191.885 96.6719C197.354 101.092 200.088 107.518 200.088 115.949C200.088 121.965 198.47 126.841 195.234 130.578C193.229 132.902 190.632 134.725 187.441 136.047C192.591 137.46 196.602 140.194 199.473 144.25C202.389 148.26 203.848 153.182 203.848 159.016C203.848 168.358 200.771 175.969 194.619 181.848C188.467 187.727 179.74 190.666 168.438 190.666Z" fill="white"/>
</svg>
