<svg width="250" height="15" viewBox="0 0 250 15" fill="none" xmlns="http://www.w3.org/2000/svg">
<rect y="7" width="100" height="1" fill="#EA5297"/>
<path d="M118.747 13.8543C118.499 13.4052 118.251 12.956 118.003 12.5069C117.413 11.4378 116.823 10.3687 116.233 9.29837C115.514 7.99633 114.795 6.69548 114.077 5.39344C113.46 4.27536 112.843 3.15727 112.226 2.04038C111.924 1.49448 111.633 0.94022 111.321 0.400291C111.316 0.393124 111.313 0.385956 111.308 0.377595C111.12 0.035958 110.668 -0.119331 110.347 0.105241C110.029 0.32623 109.893 0.780152 110.095 1.14568C110.344 1.59482 110.591 2.04397 110.839 2.49311C111.43 3.56222 112.019 4.63133 112.61 5.70163C113.328 7.00367 114.047 8.30452 114.766 9.60656C115.383 10.7246 116 11.8415 116.617 12.9596C116.918 13.5055 117.209 14.0598 117.522 14.5997C117.526 14.6069 117.53 14.614 117.534 14.6224C117.797 15.099 118.492 15.1325 118.747 14.6224C118.97 14.1757 119.194 13.7289 119.417 13.2833C119.954 12.2106 120.49 11.1391 121.026 10.0665C121.675 8.76919 122.325 7.47193 122.974 6.17347C123.535 5.0518 124.096 3.92894 124.658 2.80728C124.931 2.26257 125.223 1.72383 125.477 1.16957C125.48 1.16121 125.485 1.15404 125.489 1.14568C125.085 1.14568 124.68 1.14568 124.276 1.14568C124.511 1.59482 124.746 2.04397 124.981 2.49311C125.541 3.56222 126.101 4.63013 126.66 5.69924C127.341 7.00009 128.024 8.30213 128.705 9.60298C129.292 10.7234 129.878 11.8451 130.465 12.9656C130.75 13.5091 131.024 14.0622 131.321 14.5997C131.325 14.6069 131.328 14.6152 131.333 14.6224C131.594 15.1229 132.281 15.1086 132.546 14.6224C132.79 14.1768 133.033 13.7313 133.277 13.2845C133.864 12.2094 134.451 11.1344 135.038 10.0593C135.746 8.76322 136.455 7.46596 137.162 6.16989C137.776 5.04583 138.39 3.92178 139.003 2.79772C139.299 2.2554 139.608 1.71786 139.893 1.16838C139.897 1.16121 139.901 1.15404 139.905 1.14568C140.093 0.802849 139.988 0.296366 139.653 0.105241C139.316 -0.0882736 138.892 0.0120673 138.692 0.377595C138.448 0.823156 138.205 1.26872 137.961 1.71547C137.374 2.79055 136.787 3.86563 136.2 4.94071C135.492 6.23678 134.783 7.53404 134.076 8.83011C133.462 9.95417 132.848 11.0782 132.235 12.2023C131.939 12.7446 131.623 13.2786 131.345 13.8316C131.342 13.8388 131.337 13.846 131.333 13.8543C131.737 13.8543 132.142 13.8543 132.546 13.8543C132.311 13.4052 132.076 12.956 131.841 12.5069C131.281 11.4378 130.721 10.3699 130.162 9.30076C129.481 7.99991 128.798 6.69787 128.117 5.39702C127.53 4.27655 126.944 3.15488 126.357 2.03441C126.072 1.4909 125.798 0.937831 125.501 0.400291C125.497 0.393124 125.494 0.384762 125.489 0.377595C125.234 -0.108581 124.527 -0.12411 124.276 0.377595C124.053 0.82435 123.829 1.27111 123.606 1.71667C123.07 2.78936 122.533 3.86085 121.997 4.93355C121.348 6.23081 120.699 7.52807 120.05 8.82653C119.488 9.9482 118.927 11.0711 118.365 12.1927C118.092 12.7386 117.81 13.2797 117.546 13.8304C117.543 13.8388 117.538 13.846 117.534 13.8543C117.36 14.2043 117.443 14.6989 117.786 14.8948C118.113 15.0823 118.561 14.9951 118.747 14.6224C118.97 14.1757 119.194 13.7289 119.417 13.2833C119.954 12.2106 120.49 11.1391 121.026 10.0665C121.675 8.76919 122.325 7.47193 122.974 6.17347C123.535 5.0518 124.096 3.92894 124.658 2.80728C124.931 2.26257 125.223 1.72383 125.477 1.16957C125.48 1.16121 125.485 1.15404 125.489 1.14568C125.085 1.14568 124.68 1.14568 124.276 1.14568C124.511 1.59482 124.746 2.04397 124.981 2.49311C125.541 3.56222 126.101 4.63013 126.66 5.69924C127.341 7.00009 128.024 8.30213 128.705 9.60298C129.292 10.7234 129.878 11.8451 130.465 12.9656C130.75 13.5091 131.024 14.0622 131.321 14.5997C131.325 14.6069 131.328 14.6152 131.333 14.6224C131.594 15.1229 132.281 15.1086 132.546 14.6224C132.79 14.1768 133.033 13.7313 133.277 13.2845C133.864 12.2094 134.451 11.1344 135.038 10.0593C135.746 8.76322 136.455 7.46596 137.162 6.16989C137.776 5.04583 138.39 3.92178 139.003 2.79772C139.299 2.2554 139.608 1.71786 139.893 1.16838C139.897 1.16121 139.901 1.15404 139.905 1.14568C140.093 0.802849 139.988 0.296366 139.653 0.105241C139.316 -0.0882736 138.892 0.0120673 138.692 0.377595C138.448 0.823156 138.205 1.26872 137.961 1.71547C137.374 2.79055 136.787 3.86563 136.2 4.94071C135.492 6.23678 134.783 7.53404 134.076 8.83011C133.462 9.95417 132.848 11.0782 132.235 12.2023C131.939 12.7446 131.623 13.2786 131.345 13.8316C131.342 13.8388 131.337 13.846 131.333 13.8543C131.737 13.8543 132.142 13.8543 132.546 13.8543C132.311 13.4052 132.076 12.956 131.841 12.5069C131.281 11.4378 130.721 10.3699 130.162 9.30076C129.481 7.99991 128.798 6.69787 128.117 5.39702C127.53 4.27655 126.944 3.15488 126.357 2.03441C126.072 1.4909 125.798 0.937831 125.501 0.400291C125.497 0.393124 125.494 0.384762 125.489 0.377595C125.234 -0.108581 124.527 -0.12411 124.276 0.377595C124.053 0.82435 123.829 1.27111 123.606 1.71667C123.07 2.78936 122.533 3.86085 121.997 4.93355C121.348 6.23081 120.699 7.52807 120.05 8.82653C119.488 9.9482 118.927 11.0711 118.365 12.1927C118.092 12.7374 117.8 13.2762 117.546 13.8304C117.543 13.8388 117.538 13.846 117.534 13.8543C117.938 13.8543 118.343 13.8543 118.747 13.8543C118.499 13.4052 118.251 12.956 118.003 12.5069C117.413 11.4378 116.823 10.3687 116.233 9.29837C115.514 7.99633 114.795 6.69548 114.077 5.39344C113.46 4.27536 112.843 3.15727 112.226 2.04038C111.924 1.49448 111.633 0.94022 111.321 0.400291C111.316 0.393124 111.313 0.385956 111.308 0.377595C111.12 0.035958 110.668 -0.119331 110.347 0.105241C110.029 0.32623 109.893 0.780152 110.095 1.14568C110.344 1.59482 110.591 2.04397 110.839 2.49311C111.43 3.56222 112.019 4.63133 112.61 5.70163C113.328 7.00367 114.047 8.30452 114.766 9.60656C115.383 10.7246 116 11.8415 116.617 12.9596C116.918 13.5055 117.209 14.0598 117.522 14.5997C117.526 14.6069 117.53 14.614 117.534 14.6224C117.723 14.964 118.174 15.1193 118.495 14.8948C118.812 14.6726 118.949 14.2187 118.747 13.8543Z" fill="#EA5297"/>
<path d="M110.206 1.29834C110.472 1.54561 110.738 1.79288 111.003 2.04134C111.642 2.63622 112.28 3.2299 112.919 3.82478C113.695 4.54747 114.472 5.27016 115.248 5.99405C115.916 6.6164 116.585 7.23876 117.252 7.86111C117.578 8.16333 117.9 8.47032 118.228 8.76895C118.233 8.77373 118.237 8.77732 118.243 8.78209C118.521 9.04131 118.967 9.09984 119.236 8.78209C119.478 8.4978 119.534 7.98415 119.236 7.70701C118.97 7.45975 118.704 7.21248 118.439 6.96401C117.8 6.36914 117.162 5.77545 116.523 5.18058C115.747 4.45788 114.97 3.73519 114.194 3.0113C113.526 2.38895 112.857 1.7666 112.189 1.14425C111.864 0.84203 111.541 0.535035 111.213 0.236401C111.209 0.231623 111.205 0.22804 111.199 0.223261C110.921 -0.0359524 110.475 -0.0944845 110.206 0.223261C109.964 0.50756 109.909 1.02121 110.206 1.29834Z" fill="#EA5297"/>
<path d="M138.802 0.223376C138.536 0.470645 138.27 0.717914 138.005 0.966376C137.366 1.56125 136.728 2.15613 136.089 2.74981C135.313 3.47251 134.536 4.1952 133.76 4.91909C133.092 5.54144 132.423 6.16379 131.756 6.78614C131.431 7.08836 131.093 7.37983 130.78 7.69399C130.775 7.69877 130.771 7.70235 130.765 7.70713C130.486 7.96754 130.501 8.51941 130.765 8.78221C131.063 9.07845 131.461 9.05934 131.759 8.78221C132.025 8.53494 132.291 8.28767 132.556 8.03921C133.195 7.44433 133.833 6.84945 134.472 6.25577C135.248 5.53308 136.025 4.81039 136.801 4.0865C137.469 3.46415 138.138 2.84179 138.806 2.21944C139.13 1.91722 139.468 1.62576 139.781 1.3116C139.786 1.30682 139.79 1.30323 139.796 1.29846C140.075 1.03805 140.061 0.486174 139.796 0.223376C139.498 -0.0728678 139.1 -0.0537553 138.802 0.223376Z" fill="#EA5297"/>
<rect x="150" y="7" width="100" height="1" fill="#EA5297"/>
</svg>
