<svg width="14" height="10" viewBox="0 0 14 10" fill="none" xmlns="http://www.w3.org/2000/svg">
<path d="M0.7 5.625C0.31339 5.625 0 5.34519 0 5C0 4.65481 0.31339 4.375 0.7 4.375H13.3C13.6866 4.375 14 4.65481 14 5C14 5.34519 13.6866 5.625 13.3 5.625H0.7ZM0.7 1.25C0.31339 1.25 0 0.970187 0 0.625C0 0.279813 0.31339 0 0.7 0H13.3C13.6866 0 14 0.279813 14 0.625C14 0.970187 13.6866 1.25 13.3 1.25H0.7ZM0.7 10C0.31339 10 0 9.72019 0 9.375C0 9.02981 0.31339 8.75 0.7 8.75H13.3C13.6866 8.75 14 9.02981 14 9.375C14 9.72019 13.6866 10 13.3 10H0.7Z" fill="#1C1C1C"/>
</svg>
