<svg width="360" height="120" viewBox="0 0 360 120" fill="none" xmlns="http://www.w3.org/2000/svg">
<rect opacity="0.6" width="360" height="120" rx="4" fill="#EA5297"/>
<path d="M308.438 110.666C296.862 110.666 288.454 107.499 283.213 101.164C278.018 94.7839 275.42 87.0365 275.42 77.9219H288.271C288.818 84.2565 290.003 88.8594 291.826 91.7305C295.016 96.8802 300.781 99.4551 309.121 99.4551C315.592 99.4551 320.788 97.7233 324.707 94.2598C328.626 90.7962 330.586 86.3301 330.586 80.8613C330.586 74.1165 328.512 69.3997 324.365 66.7109C320.264 64.0221 314.544 62.6777 307.207 62.6777C306.387 62.6777 305.544 62.7005 304.678 62.7461C303.857 62.7461 303.014 62.7689 302.148 62.8145V51.9453C303.424 52.082 304.495 52.1732 305.361 52.2188C306.227 52.2643 307.161 52.2871 308.164 52.2871C312.767 52.2871 316.549 51.5579 319.512 50.0996C324.707 47.5475 327.305 42.9902 327.305 36.4277C327.305 31.5514 325.573 27.7917 322.109 25.1484C318.646 22.5052 314.613 21.1836 310.01 21.1836C301.807 21.1836 296.133 23.918 292.988 29.3867C291.257 32.3945 290.277 36.6784 290.049 42.2383H277.881C277.881 34.9466 279.339 28.7487 282.256 23.6445C287.269 14.5299 296.087 9.97266 308.711 9.97266C318.691 9.97266 326.416 12.2057 331.885 16.6719C337.354 21.0924 340.088 27.5182 340.088 35.9492C340.088 41.9648 338.47 46.8411 335.234 50.5781C333.229 52.9023 330.632 54.7253 327.441 56.0469C332.591 57.4596 336.602 60.194 339.473 64.25C342.389 68.2604 343.848 73.1823 343.848 79.0156C343.848 88.3581 340.771 95.9688 334.619 101.848C328.467 107.727 319.74 110.666 308.438 110.666Z" fill="white"/>
</svg>
