<svg width="360" height="80" viewBox="0 0 360 80" fill="none" xmlns="http://www.w3.org/2000/svg">
<rect opacity="0.4" width="360" height="80" rx="4" fill="#EA5297"/>
<path d="M307.969 68C308.229 63.1823 309.219 58.9896 310.938 55.4219C312.682 51.8542 316.068 48.612 321.094 45.6953L328.594 41.3594C331.953 39.4062 334.31 37.7396 335.664 36.3594C337.799 34.1979 338.867 31.724 338.867 28.9375C338.867 25.6823 337.891 23.1042 335.938 21.2031C333.984 19.276 331.38 18.3125 328.125 18.3125C323.307 18.3125 319.974 20.1354 318.125 23.7812C317.135 25.7344 316.589 28.4427 316.484 31.9062H309.336C309.414 27.0365 310.312 23.0651 312.031 19.9922C315.078 14.5755 320.456 11.8672 328.164 11.8672C334.57 11.8672 339.245 13.599 342.188 17.0625C345.156 20.526 346.641 24.3802 346.641 28.625C346.641 33.1042 345.065 36.9323 341.914 40.1094C340.091 41.9583 336.823 44.1979 332.109 46.8281L326.758 49.7969C324.206 51.2031 322.201 52.5443 320.742 53.8203C318.138 56.0859 316.497 58.599 315.82 61.3594H346.367V68H307.969Z" fill="white"/>
</svg>
