<svg width="360" height="200" viewBox="0 0 360 200" fill="none" xmlns="http://www.w3.org/2000/svg">
<rect width="360" height="200" rx="4" fill="#EA5297"/>
<path d="M246.055 140.227C247.461 152.258 253.047 160.578 262.812 165.188C267.812 167.531 273.594 168.703 280.156 168.703C292.656 168.703 301.914 164.719 307.93 156.75C313.945 148.781 316.953 139.953 316.953 130.266C316.953 118.547 313.359 109.484 306.172 103.078C299.062 96.6719 290.508 93.4688 280.508 93.4688C273.242 93.4688 266.992 94.875 261.758 97.6875C256.602 100.5 252.188 104.406 248.516 109.406L230.234 108.352L243.008 18H330.195V38.3906H258.828L251.68 85.0312C255.586 82.0625 259.297 79.8359 262.812 78.3516C269.062 75.7734 276.289 74.4844 284.492 74.4844C299.883 74.4844 312.93 79.4453 323.633 89.3672C334.336 99.2891 339.688 111.867 339.688 127.102C339.688 142.961 334.766 156.945 324.922 169.055C315.156 181.164 299.531 187.219 278.047 187.219C264.375 187.219 252.266 183.391 241.719 175.734C231.25 168 225.391 156.164 224.141 140.227H246.055Z" fill="white"/>
</svg>
