<svg width="46" height="28" viewBox="0 0 46 28" fill="none" xmlns="http://www.w3.org/2000/svg">
<rect x="0.5" y="0.5" width="45" height="27" rx="3.5" stroke="#1C1C1C" stroke-opacity="0.1"/>
<path fill-rule="evenodd" clip-rule="evenodd" d="M20.6685 20.1358L20.8892 18.6867L20.3976 18.6749H18.0496L19.6813 7.9812C19.6864 7.94882 19.7029 7.91876 19.7269 7.89737C19.751 7.87599 19.7817 7.86426 19.8139 7.86426H23.7729C25.0873 7.86426 25.9943 8.14689 26.4678 8.70483C26.6898 8.96658 26.8312 9.24017 26.8997 9.54113C26.9714 9.85701 26.9726 10.2343 26.9026 10.6946L26.8975 10.7281V11.0231L27.1196 11.1531C27.3065 11.2556 27.4551 11.373 27.569 11.5072C27.7589 11.7311 27.8817 12.0156 27.9336 12.3528C27.9873 12.6995 27.9696 13.1123 27.8817 13.5796C27.7804 14.117 27.6167 14.5851 27.3955 14.9681C27.1921 15.321 26.933 15.6138 26.6253 15.8406C26.3315 16.0561 25.9825 16.2197 25.5878 16.3244C25.2054 16.4273 24.7694 16.4793 24.2912 16.4793H23.9831C23.7628 16.4793 23.5488 16.5613 23.3808 16.7083C23.2124 16.8583 23.101 17.0634 23.0668 17.2876L23.0435 17.4181L22.6535 19.9723L22.6359 20.066C22.6312 20.0957 22.6231 20.1105 22.6113 20.1205C22.6008 20.1297 22.5856 20.1358 22.5709 20.1358H20.6685Z" fill="#28356A"/>
<path fill-rule="evenodd" clip-rule="evenodd" d="M27.3306 10.7622C27.3189 10.8403 27.3053 10.9201 27.2901 11.0021C26.7681 13.7728 24.9818 14.7299 22.7005 14.7299H21.539C21.26 14.7299 21.0248 14.9392 20.9814 15.2237L20.2183 20.227C20.1901 20.4138 20.3293 20.5821 20.5116 20.5821H22.5718C22.8157 20.5821 23.0229 20.3989 23.0614 20.1502L23.0816 20.0421L23.4695 17.4979L23.4944 17.3583C23.5324 17.1088 23.7401 16.9255 23.984 16.9255H24.2921C26.2881 16.9255 27.8506 16.088 28.3073 13.6641C28.498 12.6516 28.3993 11.8062 27.8945 11.2115C27.7418 11.0323 27.5522 10.8834 27.3306 10.7622Z" fill="#298FC2"/>
<path fill-rule="evenodd" clip-rule="evenodd" d="M26.7843 10.5369C26.7045 10.5129 26.6222 10.4911 26.5378 10.4715C26.4529 10.4523 26.366 10.4353 26.2765 10.4204C25.9634 10.3681 25.6201 10.3433 25.2526 10.3433H22.1496C22.0731 10.3433 22.0005 10.3611 21.9356 10.3934C21.7924 10.4645 21.6861 10.6045 21.6603 10.776L21.0002 15.0975L20.9813 15.2235C21.0246 14.939 21.2598 14.7297 21.5388 14.7297H22.7004C24.9816 14.7297 26.7679 13.772 27.2899 11.0019C27.3056 10.9199 27.3187 10.8401 27.3304 10.762C27.1983 10.6896 27.0553 10.6276 26.9012 10.5748C26.8632 10.5618 26.8239 10.5492 26.7843 10.5369Z" fill="#22284F"/>
<path fill-rule="evenodd" clip-rule="evenodd" d="M21.66 10.7761C21.6858 10.6047 21.7921 10.4647 21.9353 10.394C22.0006 10.3616 22.0728 10.3438 22.1492 10.3438H25.2523C25.6198 10.3438 25.963 10.3687 26.2762 10.421C26.3657 10.4358 26.4526 10.4529 26.5375 10.4721C26.6219 10.4917 26.7042 10.5135 26.784 10.5375C26.8236 10.5497 26.8629 10.5624 26.9013 10.575C27.0553 10.6278 27.1985 10.6902 27.3305 10.7622C27.4859 9.73832 27.3292 9.0412 26.7937 8.40995C26.2032 7.7149 25.1375 7.41748 23.7738 7.41748H19.8147C19.5361 7.41748 19.2985 7.6268 19.2555 7.91176L17.6065 18.7154C17.574 18.9291 17.7334 19.1219 17.942 19.1219H20.3862L21.66 10.7761Z" fill="#28356A"/>
</svg>
