<svg width="46" height="28" viewBox="0 0 46 28" fill="none" xmlns="http://www.w3.org/2000/svg">
<rect x="0.5" y="0.5" width="45" height="27" rx="3.5" stroke="#1C1C1C" stroke-opacity="0.1"/>
<path fill-rule="evenodd" clip-rule="evenodd" d="M25.3455 14.0671H26.4587C26.8117 14.054 27.0263 14.026 27.1036 13.9822C27.2091 13.9223 27.28 13.8026 27.3152 13.6229C27.3377 13.5033 27.349 13.3255 27.349 13.0893C27.349 12.8 27.3266 12.5855 27.2816 12.4454C27.2174 12.2492 27.0636 12.1297 26.82 12.0863C26.7718 12.0797 26.6565 12.0762 26.4738 12.0762H25.3455V14.0671ZM23.5599 17.4205V10.5791H26.8866C27.3429 10.5791 27.6911 10.6175 27.9303 10.6943C28.4775 10.8711 28.8446 11.2331 29.0326 11.7801C29.1297 12.0672 29.1782 12.4994 29.1782 13.0766C29.1782 13.7706 29.1244 14.2693 29.0179 14.5729C28.8045 15.1733 28.3653 15.5192 27.7021 15.6088C27.6241 15.6223 27.2922 15.6343 26.7065 15.6439L26.41 15.6541H25.3455V17.4205H23.5599ZM16.2549 12.7615H14.5938C14.5938 12.4803 14.5617 12.2917 14.498 12.1957C14.3992 12.0536 14.1263 11.9824 13.6797 11.9824C13.2461 11.9824 12.9585 12.0234 12.8182 12.1053C12.678 12.1874 12.6078 12.3661 12.6078 12.6413C12.6078 12.8904 12.67 13.0544 12.7946 13.133C12.8838 13.1887 13.0018 13.2215 13.1488 13.2313L13.4838 13.2557C14.2018 13.3049 14.6502 13.3395 14.8291 13.3591C15.3968 13.4181 15.8085 13.5739 16.0638 13.8262C16.2648 14.023 16.3846 14.2803 16.4229 14.5981C16.4453 14.7881 16.4564 15.0032 16.4564 15.2421C16.4564 15.7929 16.4054 16.1963 16.3033 16.4519C16.1184 16.9209 15.7029 17.2172 15.0564 17.3416C14.7856 17.3942 14.3712 17.4205 13.8139 17.4205C12.8836 17.4205 12.2353 17.3634 11.8692 17.2486C11.4199 17.108 11.1237 16.8232 10.9803 16.3942C10.9005 16.1554 10.861 15.7578 10.861 15.2011H12.5221L12.5223 15.3434C12.5223 15.6404 12.6051 15.8315 12.7704 15.9166C12.8849 15.9752 13.0232 16.006 13.1858 16.0097H13.7964C14.1081 16.0097 14.307 15.9933 14.3928 15.9602C14.5455 15.8983 14.6457 15.7986 14.6936 15.6607C14.719 15.5758 14.7317 15.4659 14.7317 15.3314C14.7317 15.0302 14.625 14.847 14.4121 14.7812C14.3325 14.7553 13.9621 14.7191 13.3009 14.6732C12.77 14.6341 12.4012 14.5965 12.1947 14.56C11.6508 14.4551 11.2884 14.2394 11.1075 13.9119C10.9485 13.6336 10.869 13.2126 10.869 12.6493C10.869 12.2204 10.912 11.8764 10.9979 11.6177C11.0838 11.359 11.2224 11.1625 11.4135 11.0281C11.6936 10.8219 12.0519 10.7008 12.4881 10.6646C12.851 10.632 13.2536 10.6153 13.6965 10.6153C14.3937 10.6153 14.8905 10.6566 15.1868 10.7385C15.9096 10.9388 16.271 11.4998 16.271 12.4217C16.271 12.4973 16.2656 12.6103 16.2549 12.7615ZM31.7985 11.9397L32.6351 14.9053H30.9866L31.7985 11.9397ZM30.6024 16.2381H32.9898L33.3304 17.4205H35.139L33.1211 10.5791H30.4276L28.4342 17.4205H30.2816L30.6024 16.2381Z" fill="#10298E"/>
<path fill-rule="evenodd" clip-rule="evenodd" d="M21.0957 11.5418C21.8321 11.5418 22.4894 11.8916 22.9215 12.4395L23.3064 11.5885C22.7044 11.0018 21.8851 10.6401 20.9814 10.6401C19.5745 10.6401 18.3709 11.5164 17.8769 12.7567H17.1264L16.6832 13.7364H17.6487C17.6415 13.8273 17.6368 13.9182 17.6368 14.011C17.6368 14.1233 17.6425 14.2343 17.6533 14.3439H17.168L16.7249 15.324H17.9C18.408 16.5329 19.5965 17.3817 20.9814 17.3817C21.6794 17.3817 22.327 17.166 22.8632 16.7977V15.5966C22.4314 16.1036 21.7998 16.4239 21.0957 16.4239C20.2726 16.4239 19.5486 15.9863 19.127 15.324H21.5876L22.0307 14.3439H18.7649C18.7481 14.226 18.7391 14.1055 18.7391 13.9827C18.7391 13.8997 18.7433 13.8175 18.751 13.7364H22.3053L22.7484 12.7567H19.0584C19.4665 12.0304 20.2259 11.5418 21.0957 11.5418Z" fill="#FFBE00"/>
</svg>
