<svg width="49" height="48" viewBox="0 0 49 48" fill="none" xmlns="http://www.w3.org/2000/svg">
<rect x="8.25" y="8" width="40" height="40" rx="20" fill="#F9CCD9"/>
<path d="M6.48612 34.2576C8.48549 36.6667 12.2067 36.6667 19.649 36.6667H20.851C28.2933 36.6667 32.0145 36.6667 34.0139 34.2576M6.48612 34.2576C4.48675 31.8485 5.17251 28.191 6.54405 20.8762C7.51942 15.6742 8.00711 13.0732 9.8586 11.5366M6.48612 34.2576C6.48611 34.2576 6.48612 34.2576 6.48612 34.2576ZM34.0139 34.2576C36.0133 31.8485 35.3275 28.191 33.9559 20.8762C32.9806 15.6742 32.4929 13.0732 30.6414 11.5366M34.0139 34.2576C34.0139 34.2576 34.0139 34.2576 34.0139 34.2576ZM30.6414 11.5366C28.7899 10 26.1436 10 20.851 10H19.649C14.3564 10 11.7101 10 9.8586 11.5366M30.6414 11.5366C30.6414 11.5366 30.6414 11.5366 30.6414 11.5366ZM9.8586 11.5366C9.8586 11.5366 9.85861 11.5366 9.8586 11.5366Z" stroke="#EA5297" stroke-width="1.5"/>
<path d="M16.9167 23.8335C17.7845 24.6145 18.2711 25.0524 19.1389 25.8335L23.5833 20.8335" stroke="#EA5297" stroke-width="1.5" stroke-linecap="round" stroke-linejoin="round"/>
<path d="M15.25 10.0002V8.3335C15.25 5.57207 17.4886 3.3335 20.25 3.3335C23.0114 3.3335 25.25 5.57207 25.25 8.3335V10.0002" stroke="#EA5297" stroke-width="1.5" stroke-linecap="round"/>
</svg>
