<svg width="76" height="15" viewBox="0 0 76 15" fill="none" xmlns="http://www.w3.org/2000/svg">
<path d="M31.0003 10.4179C31.0003 12.9999 32.9773 14.6129 36.6273 14.6129C40.3583 14.6129 42.4563 12.8379 42.4563 10.2369C42.4563 4.66993 33.9243 7.33193 33.9243 4.16593C33.9243 2.91593 35.1143 2.26993 36.6673 2.26993C38.2203 2.26993 39.3703 2.97593 39.3703 4.24593H42.0123C42.0123 1.80593 39.9153 0.25293 36.6673 0.25293C33.3403 0.25293 31.2223 2.04793 31.2223 4.42793C31.2223 9.95393 39.6923 7.31193 39.6923 10.4979C39.6923 11.8299 38.5633 12.5959 36.6273 12.5959C34.8323 12.5959 33.6423 11.7489 33.6423 10.4179H31.0003ZM44.6943 14.3709H47.3973V10.2769L49.2523 8.29993L53.8313 14.3709H56.9373L50.9873 6.46493L56.6143 0.49493H53.4883L47.3973 7.06993V0.49493H44.6943V14.3709ZM58.3343 14.3709H61.0373V0.49493H58.3343V14.3709ZM63.8993 14.3709H66.6003L66.5203 5.09393H66.6003L73.5993 14.3709H76.0003V0.49493H73.2973L73.3783 9.77293H73.2983L66.3383 0.49493H63.9003L63.8993 14.3709Z" fill="#2AA89A"/>
<path d="M0.000274658 14.7469H6.40427C9.54427 14.7469 11.2083 12.9149 11.2083 10.4499C11.2083 8.76393 10.0913 7.47993 8.34328 7.16293V7.07893C9.86028 6.59393 10.6183 5.41493 10.6183 4.04493C10.6183 1.66493 9.12227 0.25293 5.98327 0.25293H0.000274658V14.7469ZM6.40427 8.08993C8.34327 8.08993 9.27028 9.12193 9.27028 10.4699C9.27028 11.9879 8.34327 13.0619 6.40427 13.0619H1.93827V8.08993H6.40427ZM5.98427 1.93793C7.92127 1.93793 8.68027 2.75993 8.68027 4.02393C8.68027 5.37193 7.75327 6.40393 5.98327 6.40393H1.93827V1.93893H5.98327L5.98427 1.93793ZM13.5693 14.7469H19.9733C23.1133 14.7469 24.7773 12.9149 24.7773 10.4499C24.7773 8.76393 23.6603 7.47993 21.9113 7.16293V7.07893C23.4283 6.59393 24.1873 5.41493 24.1873 4.04493C24.1873 1.66493 22.6903 0.25293 19.5523 0.25293H13.5693V14.7469ZM19.9733 8.08993C21.9113 8.08993 22.8383 9.12193 22.8383 10.4699C22.8383 11.9879 21.9113 13.0619 19.9733 13.0619H15.5073V8.08993H19.9733ZM19.5523 1.93793C21.4903 1.93793 22.2493 2.75993 22.2493 4.02393C22.2493 5.37193 21.3213 6.40393 19.5523 6.40393H15.5073V1.93893H19.5523V1.93793Z" fill="black"/>
</svg>
