<svg width="300" height="24" viewBox="0 0 300 24" fill="none" xmlns="http://www.w3.org/2000/svg">
<rect opacity="0.1" y="11.5" width="253" height="1" fill="#1C1C1C"/>
<path opacity="0.1" d="M292.41 0C294.803 0 296.65 0.812029 297.949 2.43609C299.316 4.06015 300 6.37594 300 9.38346C300 12.0902 299.316 14.6165 297.949 16.9624C296.581 19.2481 294.53 21.5639 291.795 23.9098C291.726 23.9699 291.624 24 291.487 24C291.282 24 291.111 23.9098 290.974 23.7293C290.838 23.5489 290.838 23.3985 290.974 23.2782C294.325 20.2707 296 16.7218 296 12.6316C296 10.9474 295.658 9.71428 294.974 8.93233C294.359 9.83458 293.094 10.2857 291.179 10.2857C289.538 10.2857 288.205 9.83458 287.179 8.93233C286.222 7.96992 285.744 6.73684 285.744 5.23308C285.744 3.60902 286.325 2.34586 287.487 1.44361C288.718 0.481202 290.359 0 292.41 0ZM274.667 0C277.06 0 278.906 0.812029 280.205 2.43609C281.573 4.06015 282.256 6.37594 282.256 9.38346C282.256 12.0902 281.573 14.6165 280.205 16.9624C278.838 19.2481 276.786 21.5639 274.051 23.9098C273.983 23.9699 273.88 24 273.744 24C273.538 24 273.368 23.9098 273.231 23.7293C273.094 23.5489 273.094 23.3985 273.231 23.2782C276.581 20.2707 278.256 16.7218 278.256 12.6316C278.256 10.9474 277.915 9.71428 277.231 8.93233C276.615 9.83458 275.35 10.2857 273.436 10.2857C271.795 10.2857 270.462 9.83458 269.436 8.93233C268.479 7.96992 268 6.73684 268 5.23308C268 3.60902 268.581 2.34586 269.744 1.44361C270.974 0.481202 272.615 0 274.667 0Z" fill="#1C1C1C"/>
</svg>
