<svg width="46" height="28" viewBox="0 0 46 28" fill="none" xmlns="http://www.w3.org/2000/svg">
<rect x="0.5" y="0.5" width="45" height="27" rx="3.5" stroke="#1C1C1C" stroke-opacity="0.1"/>
<path fill-rule="evenodd" clip-rule="evenodd" d="M17.0503 17.8486H14.9905L13.446 11.7827C13.3727 11.5037 13.217 11.257 12.988 11.1407C12.4166 10.8486 11.7869 10.616 11.1 10.4988V10.2652H14.4181C14.876 10.2652 15.2195 10.616 15.2767 11.0235L16.0781 15.399L18.1369 10.2652H20.1394L17.0503 17.8486ZM21.2842 17.8486H19.339L20.9408 10.2652H22.886L21.2842 17.8486ZM25.4027 12.3661C25.4599 11.9576 25.8034 11.7241 26.2041 11.7241C26.8338 11.6654 27.5197 11.7827 28.0921 12.0739L28.4356 10.4411C27.8631 10.2076 27.2335 10.0903 26.6621 10.0903C24.774 10.0903 23.4002 11.1407 23.4002 12.5986C23.4002 13.7077 24.3733 14.29 25.0603 14.6408C25.8034 14.9906 26.0896 15.2241 26.0324 15.5739C26.0324 16.0986 25.4599 16.3322 24.8885 16.3322C24.2016 16.3322 23.5147 16.1573 22.886 15.8651L22.5426 17.4988C23.2295 17.79 23.9726 17.9073 24.6596 17.9073C26.7765 17.9649 28.0921 16.9155 28.0921 15.3404C28.0921 13.3568 25.4027 13.2406 25.4027 12.3661ZM34.9 17.8486L33.3555 10.2652H31.6964C31.353 10.2652 31.0095 10.4988 30.895 10.8486L28.0349 17.8486H30.0374L30.4371 16.7406H32.8975L33.1265 17.8486H34.9ZM31.9826 12.3075L32.5541 15.1655H30.9523L31.9826 12.3075Z" fill="#172B85"/>
</svg>
